<svg xmlns="http://www.w3.org/2000/svg" width="31" height="30" fill="none"><g clip-path="url(#a)"><path fill="#fff" fill-rule="evenodd" d="M15.5 0C7.216 0 .5 6.716.5 15s6.716 15 15 15 15-6.716 15-15-6.716-15-15-15m6.953 10.201c-.226 2.371-1.203 8.128-1.7 10.784-.21 1.125-.624 1.501-1.024 1.538-.871.08-1.533-.577-2.376-1.13-1.32-.864-2.067-1.403-3.348-2.248-1.481-.976-.521-1.512.322-2.389.222-.23 4.06-3.721 4.134-4.037.009-.04.019-.188-.07-.265-.088-.078-.217-.052-.31-.03q-.198.045-6.327 4.181-.898.616-1.628.601c-.535-.011-1.565-.302-2.331-.552-.939-.305-1.686-.468-1.621-.985q.05-.405 1.115-.829 6.559-2.857 8.747-3.769c4.166-1.732 5.031-2.033 5.596-2.043.708-.01.878.573.82 1.173" clip-rule="evenodd"/></g><defs><clipPath id="a"><path fill="#fff" d="M.5 0h30v30H.5z"/></clipPath></defs></svg>