<svg width="393" height="852" viewBox="0 0 393 852" xmlns="http://www.w3.org/2000/svg">
  <defs>
    <radialGradient id="backgroundGradient" cx="1" cy="0.7" r="1">
      <stop offset="0" stop-color="#ffe0ff"/>
      <stop offset="0.1" stop-color="#eb9dea"/>
      <stop offset="0.8" stop-color="#bf02bc"/>
      <stop offset="1" stop-color="#850182"/>
    </radialGradient>
    <radialGradient id="blobGradient">
      <stop offset="0.6" stop-color="#000000"/>
      <stop offset="1" stop-color="#00000099"/>
    </radialGradient>
    <filter id="blur">
      <feGaussianBlur stdDeviation="15"/>
    </filter>
  </defs>
  <rect width="100%" height="100%" fill="url(#backgroundGradient)" />
  <g filter="url(#blur)" fill="url(#blobGradient)">
    <path d="M360 106.5C358 225 328 356 216 392C103 429 0 342 -71 247C-145 147 -206 21 -139 -83C-62 -201 92 -254 224 -204C340 -160 362 -19 360 106.5Z">
      <animateTransform attributeName="transform" type="rotate" from="0 96 89" to="-360 96 89" dur="15s" repeatCount="indefinite" />
    </path>
    <path d="M313 499C432 501 563 531 599 643C636 756 549 859 454 930C354 1004 228 1066 124 998C6 921 -47 767 3 635C47 519 188 497 313 499Z">
      <animateTransform attributeName="transform" type="rotate" from="0 296 763" to="360 296 763" dur="15s" repeatCount="indefinite" />
    </path>
  </g>
</svg>

