<svg xmlns="http://www.w3.org/2000/svg" width="170" height="170" fill="none"><mask id="a" fill="#fff"><path fill-rule="evenodd" d="M53.67 165.364C23.35 152.913 2 123.094 2 88.288 2 42.289 39.29 5 85.288 5s83.287 37.29 83.287 83.288c0 34.775-21.313 64.573-51.589 77.043l-15.122-45.383.199-.108c17.263-9.385 23.649-30.987 14.264-48.25S85.339 47.94 68.077 57.327c-17.263 9.385-23.65 30.987-14.264 48.25a35.4 35.4 0 0 0 14.909 14.61z" clip-rule="evenodd"/></mask><path fill="#fff" fill-rule="evenodd" d="M53.67 165.364C23.35 152.913 2 123.094 2 88.288 2 42.289 39.29 5 85.288 5s83.287 37.29 83.287 83.288c0 34.775-21.313 64.573-51.589 77.043l-15.122-45.383.199-.108c17.263-9.385 23.649-30.987 14.264-48.25S85.339 47.94 68.077 57.327c-17.263 9.385-23.65 30.987-14.264 48.25a35.4 35.4 0 0 0 14.909 14.61z" clip-rule="evenodd"/><path fill="#fff" d="M2 88.288H1zm51.67 77.076-.38.925.99.406.338-1.015zM85.287 5v1zm31.698 160.331-.949.316.339 1.017.991-.408zm-15.122-45.383-.472-.882-.743.398.267.8zm.199-.108-.477-.878zm14.264-48.25.878-.478zm-48.25-14.263-.478-.879zm-14.264 48.25-.879.478zm14.909 14.61.949.316.27-.812-.76-.393zM1 88.287c0 35.226 21.608 65.402 52.29 78.002l.759-1.85C24.092 152.137 3 122.674 3 88.288zM85.288 4C38.737 4 1 41.737 1 88.288h2C3 42.84 39.841 6 85.288 6zm84.287 84.288C169.575 41.737 131.838 4 85.288 4v2c45.446 0 82.287 36.841 82.287 82.288zm-52.208 77.968c30.638-12.62 52.208-42.774 52.208-77.968h-2c0 34.356-21.055 63.797-50.97 76.118zm-16.451-45.992 15.121 45.383 1.898-.632-15.122-45.384zm.67-1.302-.194.104.945 1.763.204-.11zm13.862-46.894c9.121 16.777 2.915 37.772-13.862 46.894l.955 1.757c17.748-9.649 24.313-31.859 14.664-49.607zM68.554 58.205c16.777-9.121 37.773-2.915 46.894 13.863l1.757-.956C107.556 53.364 85.346 46.8 67.599 56.448zM54.69 105.1c-9.121-16.777-2.915-37.772 13.863-46.894l-.956-1.757c-17.747 9.65-24.313 31.859-14.664 49.607zm14.49 14.199a34.4 34.4 0 0 1-14.49-14.199l-1.757.956a36.4 36.4 0 0 0 15.33 15.02zM54.618 165.68l15.053-45.177-1.898-.632-15.053 45.177z" mask="url(#a)"/></svg>